<svg id="Réteg_2" data-name="Réteg 2" xmlns="http://www.w3.org/2000/svg" xmlns:xlink="http://www.w3.org/1999/xlink" width="259.55" height="391.05" viewBox="0 0 259.55 391.05">
  <defs>
    <style>
      .cls-1 {
        fill: url(#Névtelen_színátmenet_29);
      }

      .cls-2 {
        fill: url(#Névtelen_színátmenet_10);
      }

      .cls-3 {
        fill: url(#Névtelen_színátmenet_14);
      }

      .cls-4 {
        fill: url(#Névtelen_színátmenet_10-2);
      }

      .cls-5 {
        fill: url(#Névtelen_színátmenet_5);
      }

      .cls-6 {
        fill: url(#Névtelen_színátmenet_5-2);
      }

      .cls-7 {
        fill: none;
        stroke: #1d1d1b;
        stroke-miterlimit: 10;
        stroke-width: 2px;
      }

      .cls-8 {
        fill: url(#Névtelen_színátmenet_10-3);
      }

      .cls-9 {
        fill: url(#Névtelen_színátmenet_15);
      }

      .cls-10 {
        fill: url(#Névtelen_színátmenet_19);
      }

      .cls-11 {
        fill: url(#Névtelen_színátmenet_20);
      }

      .cls-12 {
        fill: url(#Névtelen_színátmenet_15-2);
      }

      .cls-13 {
        fill: url(#Névtelen_színátmenet_22);
      }

      .cls-14 {
        fill: url(#Névtelen_színátmenet_21);
      }

      .cls-15 {
        fill: url(#Névtelen_színátmenet_22-2);
      }

      .cls-16 {
        fill: url(#Névtelen_színátmenet_22-3);
      }

      .cls-17 {
        fill: url(#Névtelen_színátmenet_29-2);
      }

      .cls-18 {
        fill: url(#Névtelen_színátmenet_29-3);
      }

      .cls-19 {
        fill: url(#Névtelen_színátmenet_29-4);
      }

      .cls-20 {
        fill: url(#Névtelen_színátmenet_29-5);
      }
    </style>
    <linearGradient id="Névtelen_színátmenet_29" data-name="Névtelen színátmenet 29" x1="845.46" y1="419.65" x2="856.39" y2="402.03" gradientUnits="userSpaceOnUse">
      <stop offset="0" stop-color="#482681"/>
      <stop offset="1" stop-color="#201a3f"/>
    </linearGradient>
    <linearGradient id="Névtelen_színátmenet_10" data-name="Névtelen színátmenet 10" x1="949.7" y1="505.85" x2="1043.42" y2="673.53" gradientUnits="userSpaceOnUse">
      <stop offset="0" stop-color="#1f193e"/>
      <stop offset="1" stop-color="#4a2683"/>
    </linearGradient>
    <linearGradient id="Névtelen_színátmenet_14" data-name="Névtelen színátmenet 14" x1="950.8" y1="495.27" x2="1087.22" y2="548.06" gradientUnits="userSpaceOnUse">
      <stop offset="0" stop-color="#e8366f"/>
      <stop offset="1" stop-color="#fbe015"/>
    </linearGradient>
    <linearGradient id="Névtelen_színátmenet_10-2" x1="973.01" y1="487.03" x2="1039.7" y2="606.34" xlink:href="#Névtelen_színátmenet_10"/>
    <linearGradient id="Névtelen_színátmenet_5" data-name="Névtelen színátmenet 5" x1="944.46" y1="511.91" x2="1014.74" y2="688.63" gradientUnits="userSpaceOnUse">
      <stop offset="0" stop-color="#e8376f"/>
      <stop offset="1" stop-color="#ffe10a"/>
    </linearGradient>
    <linearGradient id="Névtelen_színátmenet_5-2" x1="976.2" y1="491.47" x2="1024.15" y2="612.06" xlink:href="#Névtelen_színátmenet_5"/>
    <linearGradient id="Névtelen_színátmenet_10-3" x1="994.38" y1="471.26" x2="1041.19" y2="555" xlink:href="#Névtelen_színátmenet_10"/>
    <linearGradient id="Névtelen_színátmenet_15" data-name="Névtelen színátmenet 15" x1="902.88" y1="532.38" x2="1011.56" y2="356.99" xlink:href="#Névtelen_színátmenet_10"/>
    <linearGradient id="Névtelen_színátmenet_19" data-name="Névtelen színátmenet 19" x1="898.37" y1="514" x2="1001.13" y2="348.17" xlink:href="#Névtelen_színátmenet_14"/>
    <linearGradient id="Névtelen_színátmenet_20" data-name="Névtelen színátmenet 20" x1="916.58" y1="533.15" x2="1007.71" y2="386.09" xlink:href="#Névtelen_színátmenet_14"/>
    <linearGradient id="Névtelen_színátmenet_15-2" data-name="Névtelen színátmenet 15" x1="922.41" y1="546.75" x2="1018.12" y2="392.31" xlink:href="#Névtelen_színátmenet_10"/>
    <linearGradient id="Névtelen_színátmenet_22" data-name="Névtelen színátmenet 22" x1="837.14" y1="444.5" x2="875.97" y2="381.84" gradientUnits="userSpaceOnUse">
      <stop offset="0" stop-color="#fbe015"/>
      <stop offset="1" stop-color="#e8366f"/>
    </linearGradient>
    <linearGradient id="Névtelen_színátmenet_21" data-name="Névtelen színátmenet 21" x1="834.74" y1="423.16" x2="868.25" y2="369.08" xlink:href="#Névtelen_színátmenet_22"/>
    <linearGradient id="Névtelen_színátmenet_22-2" x1="885.09" y1="432.84" x2="900.85" y2="407.41" xlink:href="#Névtelen_színátmenet_22"/>
    <linearGradient id="Névtelen_színátmenet_22-3" x1="907.49" y1="400.87" x2="914.24" y2="389.99" xlink:href="#Névtelen_színátmenet_22"/>
    <linearGradient id="Névtelen_színátmenet_29-2" x1="848.23" y1="446.22" x2="891.6" y2="376.24" xlink:href="#Névtelen_színátmenet_29"/>
    <linearGradient id="Névtelen_színátmenet_29-3" x1="852.34" y1="393.7" x2="880.61" y2="348.07" xlink:href="#Névtelen_színátmenet_29"/>
    <linearGradient id="Névtelen_színátmenet_29-4" x1="878.47" y1="431.25" x2="890.9" y2="411.2" xlink:href="#Névtelen_színátmenet_29"/>
    <linearGradient id="Névtelen_színátmenet_29-5" x1="901.27" y1="413.86" x2="910.74" y2="398.58" xlink:href="#Névtelen_színátmenet_29"/>
  </defs>
  <g>
    <path class="cls-1" d="M856.75,399.66a31.19,31.19,0,0,0-3.23,2.31,24.48,24.48,0,0,0-6.5,8,8.72,8.72,0,0,0-.85,3.08,10.34,10.34,0,0,0,.2,2.56,9.27,9.27,0,0,1-1.11,5.24,24.46,24.46,0,0,0,5.59-4,19.59,19.59,0,0,0,5-6.85A18,18,0,0,0,856.75,399.66Z" transform="translate(-830.96 -328.9)"/>
    <path class="cls-2" d="M960.22,480.19a31.81,31.81,0,0,0-4.71,2.87c-9.46,6.75-12.19,17.42-13.35,22-.91,3.53-2.79,11.89-.2,24.38,3.67,17.79,16.92,36.07,16.92,36.07,14.25,19.79,24.92,32,35.06,44.33,35.42,42.93,40.38,57.25,42.11,62.87a107,107,0,0,1,4.24,39.69,82.75,82.75,0,0,0,7.25-32c.07-3.56,0-12.23-3.43-25-3.84-14.29-6.35-18.09-26.8-51.38-17-27.67-19.51-32.28-27.4-39.09-6.93-6-9.41-6.26-18.54-14.51C959.44,539.56,951,531.88,948.1,521,943.15,502.59,956.62,484.69,960.22,480.19Z" transform="translate(-830.96 -328.9)"/>
    <path class="cls-3" d="M960.4,480.41a24.27,24.27,0,0,0-4,10.88c-1.2,10.07,5.09,17.82,8.17,21.61,2.13,2.64,9.27,10.8,26.74,16.47,14.32,4.65,15.19,1,36.12,4.69,16.95,3,31.23,8,43.83,12.39,6.46,2.26,11.83,4.34,15.71,5.9a43.17,43.17,0,0,0-4.53-6.2c-9.56-10.93-22.16-14.36-30.68-16.47-27.61-6.85-32.63-4.92-53.49-10.58-26.36-7.16-32.12-14-34.76-18.89C959.69,493.16,959.64,485.53,960.4,480.41Z" transform="translate(-830.96 -328.9)"/>
    <path class="cls-4" d="M960.38,480a25.81,25.81,0,0,0-6.33,8.73c-4.45,10.25,1.78,21.38,4.63,27,6,11.79,15.88,19,38.49,34.46,33.51,23,39.19,26.05,47.75,35.26a119.5,119.5,0,0,1,21.36,32.44,74.43,74.43,0,0,0-2-16.32c-3.31-13.9-9.8-23.18-14.1-29.22-9.57-13.41-19.81-21-28.82-27.6-7.25-5.35-13.38-9.81-22.56-13.3-4.22-1.61-6.34-2-11.69-4.23-2-.84-12.51-5.3-17.73-9.68C957.37,507.46,959.77,485.08,960.38,480Z" transform="translate(-830.96 -328.9)"/>
    <path class="cls-5" d="M959.89,480c-4.54,3.67-14.35,12.69-17.93,27.28-1.75,7.1-2.45,17.26,3.82,34,6.21,16.61,14.5,27.05,34.16,50,13.89,16.2,50.35,58.33,57.4,84.38.63,2.35,1.13,4.68,1.13,4.68a100.26,100.26,0,0,1,.4,37.08c-2.55-6-6.28-14.24-11.28-23.78a329,329,0,0,0-32.94-51c-18.4-23.12-22.49-21.19-36.88-42.31a233,233,0,0,1-18.43-32.64c-5.68-11.91-8.52-17.87-10-26-1.16-6.46-3.91-22.21,4.74-38.28C942,488.79,954.81,482.22,959.89,480Z" transform="translate(-830.96 -328.9)"/>
    <path class="cls-6" d="M960.2,480.22c-7.89,8.34-10.61,13.34-11.3,15.06a39.62,39.62,0,0,0-1.86,9.24h0c-1.26,5,.82,14.8,1.06,16.47,2.4,16.38,39.29,42.16,39.29,42.16,16.9,11.81,21.46,13.06,35.13,22.16a276.84,276.84,0,0,1,43.76,36.18,54.86,54.86,0,0,0-5.44-17.84c-4.66-9.16-10.79-14.56-21.91-24.18a240.3,240.3,0,0,0-19.5-15c-7.11-5-8.2-5.4-21.16-14-12.19-8.14-18.37-12.28-22.36-15.72-9.35-8-15.22-13.1-18.44-21.46C952.49,500.37,957.5,486.42,960.2,480.22Z" transform="translate(-830.96 -328.9)"/>
    <path class="cls-7" d="M960.69,479.23c-8.2,4-22.79,12.68-29.82,29-10.12,23.52,1.75,48.2,11.69,68.1,14.78,29.61,28.7,37.7,51.18,66.09a351.22,351.22,0,0,1,45.13,75c9.06-22.38,8.77-40,7.66-50-2.68-24.16-14.43-42-33.45-70.93-8.94-13.6-17.08-24.19-22.56-31a261.82,261.82,0,0,1,58.43,39.9,256,256,0,0,1,18.13,18.13,82.14,82.14,0,0,0-6-33.85c-8.47-20.46-23.66-32.4-36.27-42.31A162.74,162.74,0,0,0,1001.4,532,238.73,238.73,0,0,1,1088,553c-12.62-21.35-26.51-31-36.67-35.87-7.95-3.81-28-11.58-53.2-14.1-10.6-1.06-22.07-1.19-30.22-9.68A29.6,29.6,0,0,1,960.69,479.23Z" transform="translate(-830.96 -328.9)"/>
    <path class="cls-8" d="M960.42,480.34a28.72,28.72,0,0,0,.88,15.21c1.16,3.32,3.74,8.67,11,14.11,10.51,7.89,21.83,9.52,50.88,14.3,23.5,3.87,32.06,5.45,43.12,11.08,6.74,3.44,15.42,11.44,18.69,14a112.66,112.66,0,0,0-20.3-23.27c-11.05-8.8-22.11-12.22-33.45-15.72a182.6,182.6,0,0,0-23.38-5.44c-19-3.18-24.41-1.19-32.44-5.84C970.93,496.18,965,491.16,960.42,480.34Z" transform="translate(-830.96 -328.9)"/>
    <path class="cls-9" d="M922.61,557.41c-4.77-7.33-23-37.12-12.29-66.69,4.95-13.63,14.15-22,24.78-31.64,20.29-18.41,30.2-16.87,61.86-39.49,23-16.43,27.37-24.1,29.62-30,6.4-16.81,1.24-34.17.41-36.87a60.41,60.41,0,0,0-8.67-17.33c1.06,8.67,1.34,21.61-4,35.26-5.66,14.41-15.09,23.23-31.43,36.27-50,39.94-67.22,41.6-78,65.29a73.43,73.43,0,0,0-6,36.27C901.09,534.53,916.89,551.73,922.61,557.41Z" transform="translate(-830.96 -328.9)"/>
    <path class="cls-10" d="M903.9,529.53c-2.4-24.61-1.23-57.33,19.72-78.91,4.17-4.3,5.07-4.08,21.56-15.11,57-38.14,66.87-56.76,69.72-62.67s11.36-23.59,3.83-36.07a20.42,20.42,0,0,0-3.43-4.23,138,138,0,0,1-29.42,48.56c-9.33,9.86-12.7,10.29-29.82,24.18-31.18,25.3-46.74,38-54.61,58.84-2,5.3-9.5,26-3.22,50.3A76.94,76.94,0,0,0,903.9,529.53Z" transform="translate(-830.96 -328.9)"/>
    <path class="cls-11" d="M915,542.9a61.43,61.43,0,0,1-3.48-31.81,64.36,64.36,0,0,1,7.18-20.17,73.51,73.51,0,0,1,18.61-21.36c3.56-2.83,5.77-4.1,23.07-13.1C979,446.79,984.05,444.3,993,439.38c14.48-8,21.79-12,25.29-15.91,10.55-11.74,13.79-26.79,14.76-31.49a73,73,0,0,0,1.41-11c-2,1.45-3.71,4.21-6.17,3.87a58.82,58.82,0,0,1-5.92,11.55,62.26,62.26,0,0,1-14.71,14.91c-20.08,14.74-50.38,28.09-76.87,51-9.37,8.1-15.55,15.14-19.54,24.89a61.87,61.87,0,0,0-4.08,28A69.08,69.08,0,0,0,915,542.9Z" transform="translate(-830.96 -328.9)"/>
    <path class="cls-12" d="M924,559A57.46,57.46,0,0,1,916,526.38c.1-1.47,1.76-22.75,18.54-38.28,6.28-5.82,13.72-9.12,28.61-15.72,13.75-6.1,17.15-6.17,26.4-10.08,13.72-5.79,33.72-14.24,43.52-31.83,11.1-19.92,4.23-42.81,1.41-50.78a71.58,71.58,0,0,1-2,14.81c-1.25,5.1-4.07,16.18-12.4,26-2.25,2.66-5.66,6.12-19.64,14.51-13.17,7.91-23.19,12.68-28.41,15.27-23.87,11.8-35.8,17.7-43.75,26.52-2.1,2.32-22,25.08-16.7,54.83A62,62,0,0,0,924,559Z" transform="translate(-830.96 -328.9)"/>
    <path class="cls-13" d="M838,449.58c3.67-12.9,9.38-21.11,14-26.3,5.91-6.56,15.24-11.09,23.57-22.06a37.9,37.9,0,0,0,8-23.88l-26.74,23.12a19,19,0,0,1-.1,5.59,19.41,19.41,0,0,1-3.87,8.54c-.78,1-1.86,2.13-6.35,5.33-7.54,5.37-8,4.49-9.93,6.69a16.77,16.77,0,0,0-3.63,14.2A17,17,0,0,0,838,449.58Z" transform="translate(-830.96 -328.9)"/>
    <path class="cls-14" d="M871.5,363.14a57,57,0,0,1-4.38,7.55c-1.78,2.59-6.69,9.27-26.44,26.15,0,0-6.24,5.28-7.11,11a11.64,11.64,0,0,0,0,3.42,9.38,9.38,0,0,0,.26,1,41.93,41.93,0,0,1,2,10.38,21.22,21.22,0,0,1-.45,4.83c7.92-2.82,10.11-5.69,10.58-7.86,0-.25.2-1.28.5-3.32.75-5.16.67-5.33,1-6.25a13.61,13.61,0,0,1,4-5.79,22.58,22.58,0,0,1,6.29-4.13c6.11-3.23,9.17-9.74,11.08-13.9A39,39,0,0,0,871.5,363.14Z" transform="translate(-830.96 -328.9)"/>
    <path class="cls-15" d="M886.85,404.16l-1.59.58a33.52,33.52,0,0,1,8.31,8.42,29.23,29.23,0,0,1,2.11,3.75,26,26,0,0,1,2,6.37,32.69,32.69,0,0,1-1.51,14.23c0,.12-.3.89-.61,1.94-.18.65-.32,1.17-.39,1.48.36-.33.9-.83,1.53-1.46,3.06-3.08,8.64-8.7,9.44-16.64,0-.43.06-.74.08-1,.29-5.42-1.33-9.23-3.25-13.6-1.7-3.87-2.91-5.41-4.69-6.09a6.66,6.66,0,0,0-.74-.23C895.49,401.43,893.59,401.7,886.85,404.16Z" transform="translate(-830.96 -328.9)"/>
    <path class="cls-16" d="M893,390c.34-2.68.69-5.36,1-8a32,32,0,0,1,12.2,2.17A29.69,29.69,0,0,1,920.32,395a29.18,29.18,0,0,1,5,17.68A43.12,43.12,0,0,0,893,390Z" transform="translate(-830.96 -328.9)"/>
    <path class="cls-17" d="M839.32,445.8A73.78,73.78,0,0,1,857,425.7c8.49-6.61,12.28-6.36,20.55-13.6,5.45-4.78,12.18-10.68,15.11-20.4,3.49-11.6-.39-22.1-2.42-26.6q-3.32,5.75-6.65,11.49a52.24,52.24,0,0,1-.75,7,47.53,47.53,0,0,1-3.17,11c-.92,2-2.95,6-9.68,12.69a113.37,113.37,0,0,1-13.45,11.19C850.85,422.89,844,430.76,839.32,445.8Z" transform="translate(-830.96 -328.9)"/>
    <path class="cls-18" d="M872.49,336.31a51.58,51.58,0,0,1-1,26.45,32.11,32.11,0,0,1,.61,5.21c.54,15.47-10.1,27.29-15,32A47.75,47.75,0,0,0,873,385.12a42.16,42.16,0,0,0,7.48-20.78,41.1,41.1,0,0,0-1.29-13.07A46.25,46.25,0,0,0,872.49,336.31Z" transform="translate(-830.96 -328.9)"/>
    <path class="cls-19" d="M861.81,422.39c.6-.38,12.5-7.64,22.14-2.23,4.57,2.57,7.15,7.15,8.06,8.76a27,27,0,0,1,3.32,10.88,26.82,26.82,0,0,0-1-25.79,27.63,27.63,0,0,0-9.06-9.27Z" transform="translate(-830.96 -328.9)"/>
    <path class="cls-20" d="M885.07,404.93a36.6,36.6,0,0,1,15.22-3c13.3.33,22.26,8,24.86,10.43a36.57,36.57,0,0,0-5.29-8.31c-7-8.26-15.89-11.24-19.94-12.54a48.89,48.89,0,0,0-6.77-1.66Z" transform="translate(-830.96 -328.9)"/>
    <path class="cls-7" d="M837.8,450.48c12.17-25.54,33.57-35.71,45.34-30.22,8.88,4.15,11.41,16.82,12.09,21.16,1-.75,11.31-8.4,11.18-21.46a26.33,26.33,0,0,0-7.15-17.43,29.27,29.27,0,0,1,12.19,1.21,30,30,0,0,1,14.41,10.17c.1-1.73.62-15.13-10.08-24.68a31.26,31.26,0,0,0-22-7.66A34.73,34.73,0,0,0,890.39,364a58.24,58.24,0,0,1-19.14,24.18,43.15,43.15,0,0,0,9.88-29.42,42.46,42.46,0,0,0-9.27-24c3,13.32,1,22.46-1.21,28.2C861.3,387.23,831,394.92,833,410.79c.52,4.24,3.23,8.17,2,15.31-.89,5.22-3.07,7.37-3,11.89C832,443.42,835.25,447.77,837.8,450.48Z" transform="translate(-830.96 -328.9)"/>
    <path class="cls-7" d="M924,559a90.57,90.57,0,0,1-26.6-47.15A86.81,86.81,0,0,1,899,470c7.44-24.23,25-38.65,56.42-64.48,21.84-18,30.86-21.7,42.31-37.88a119.52,119.52,0,0,0,17.33-36.67c11.07,12.47,14,23.17,14.51,31,.66,11.3-3.55,22.42-1.21,23.37,1.35.55,3.95-2.66,6-5.64,2.65,8.83,9.45,35.66-4.83,56-7,9.92-16.63,15-30.23,22.16-20,10.55-25.24,7.73-43.12,16.93-14.59,7.5-30.23,15.55-37.48,31.83C908.87,528.92,920.78,552.94,924,559Z" transform="translate(-830.96 -328.9)"/>
  </g>
</svg>
