<?xml version="1.0" standalone="no"?>
<!DOCTYPE svg PUBLIC "-//W3C//DTD SVG 20010904//EN"
 "http://www.w3.org/TR/2001/REC-SVG-20010904/DTD/svg10.dtd">
<svg version="1.0" xmlns="http://www.w3.org/2000/svg"
 width="1920.000000pt" height="1080.000000pt" viewBox="0 0 1920.000000 1080.000000"
 preserveAspectRatio="xMidYMid meet">

<g transform="translate(0.000000,1080.000000) scale(0.100000,-0.100000)"
fill="#000000" stroke="none">
<path d="M12320 5800 l0 -125 385 -385 385 -385 0 125 0 125 -385 385 -385
385 0 -125z"/>
<path d="M6265 5753 c10 -15 34 -52 53 -80 l35 -53 273 0 c260 0 274 -1 284
-19 6 -11 10 -92 10 -190 0 -141 -3 -172 -16 -185 -12 -13 -41 -16 -155 -16
l-139 0 0 -76 0 -76 188 4 c185 3 188 3 236 32 81 48 88 73 84 340 l-3 224
-31 39 c-60 73 -81 77 -483 81 l-354 3 18 -28z"/>
<path d="M7172 5701 l53 -81 362 0 362 0 3 72 3 71 47 -71 48 -72 277 -2 278
-3 3 -64 c2 -45 -1 -67 -10 -72 -7 -5 -75 -9 -150 -9 l-138 0 0 -80 0 -79 148
-3 147 -3 3 -33 c6 -58 -5 -62 -159 -62 l-139 0 0 -75 0 -75 169 0 c190 0 234
10 289 62 52 51 68 148 36 228 -15 37 -15 43 0 80 10 25 16 70 16 118 -1 120
-33 174 -130 213 -29 11 -174 14 -803 17 l-768 3 53 -80z"/>
<path d="M8847 5738 c16 -24 40 -60 53 -80 l25 -38 271 0 c196 0 273 -3 282
-12 16 -16 15 -113 -1 -126 -8 -7 -71 -13 -154 -14 l-140 -3 126 -202 126
-203 128 0 c100 0 127 3 121 13 -4 6 -41 65 -81 130 l-72 118 25 9 c14 6 29
10 34 10 21 0 80 64 91 98 14 43 14 173 -1 218 -13 39 -54 78 -105 101 -35 16
-81 18 -399 21 l-358 4 29 -44z"/>
<path d="M9700 5775 c0 -3 23 -39 50 -80 l51 -75 359 0 360 0 0 80 0 80 -410
0 c-225 0 -410 -2 -410 -5z"/>
<path d="M10792 5769 c-61 -12 -119 -48 -145 -89 -20 -33 -22 -49 -25 -240 -4
-227 1 -260 49 -315 34 -38 105 -65 171 -65 l38 0 0 73 c0 65 -2 73 -22 82
-23 10 -23 14 -26 194 -2 127 1 188 9 197 9 10 41 14 125 14 l114 0 0 80 0 80
-122 -1 c-68 -1 -142 -5 -166 -10z"/>
<path d="M11140 5701 c0 -64 3 -81 15 -81 22 0 35 -34 35 -94 l0 -56 100 0
100 0 0 75 c0 150 -50 206 -207 230 l-43 7 0 -81z"/>
<path d="M11442 5700 l53 -80 363 0 362 0 0 80 0 80 -415 0 -415 0 52 -80z"/>
<path d="M12880 5612 l0 -167 105 -105 105 -105 0 273 0 272 -105 0 -105 0 0
-168z"/>
<path d="M12320 5332 l0 -272 100 0 100 0 0 173 0 172 -100 100 -100 100 0
-273z"/>
<path d="M6350 5315 l0 -255 105 0 105 0 0 255 0 255 -105 0 -105 0 0 -255z"/>
<path d="M7230 5315 l0 -255 360 0 360 0 0 75 0 75 -260 0 -260 0 0 180 0 180
-100 0 -100 0 0 -255z"/>
<path d="M8050 5315 l0 -255 100 0 100 0 0 255 0 255 -100 0 -100 0 0 -255z"/>
<path d="M8920 5315 l0 -255 105 0 105 0 0 255 0 255 -105 0 -105 0 0 -255z"/>
<path d="M9800 5315 l0 -255 360 0 360 0 0 75 0 75 -257 2 -258 3 -3 178 -2
177 -100 0 -100 0 0 -255z"/>
<path d="M11500 5315 l0 -255 360 0 360 0 0 75 0 75 -260 0 -260 0 0 180 0
180 -100 0 -100 0 0 -255z"/>
<path d="M7565 5390 l80 -80 152 0 153 0 0 80 0 80 -232 0 -233 0 80 -80z"/>
<path d="M10135 5390 l80 -80 152 0 153 0 0 80 0 80 -232 0 -233 0 80 -80z"/>
<path d="M11835 5390 l80 -80 152 0 153 0 0 80 0 80 -232 0 -233 0 80 -80z"/>
<path d="M11188 5299 c-2 -47 -8 -73 -18 -79 -8 -6 -66 -10 -127 -10 l-113 0
0 -76 0 -75 158 3 c146 3 161 5 207 28 71 37 95 87 95 197 l0 83 -99 0 -99 0
-4 -71z"/>
</g>
</svg>
