<?xml version="1.0" standalone="no"?>
<!DOCTYPE svg PUBLIC "-//W3C//DTD SVG 20010904//EN"
 "http://www.w3.org/TR/2001/REC-SVG-20010904/DTD/svg10.dtd">
<svg version="1.0" xmlns="http://www.w3.org/2000/svg"
 width="1920.000000pt" height="1080.000000pt" viewBox="0 0 1920.000000 1080.000000"
 preserveAspectRatio="xMidYMid meet">

<g transform="translate(0.000000,1080.000000) scale(0.100000,-0.100000)"
fill="#000000" stroke="none">
<path d="M9754 7334 c-15 -59 -64 -165 -107 -231 -53 -81 -114 -141 -262 -255
-161 -125 -312 -259 -376 -334 -145 -167 -184 -385 -110 -602 36 -103 79 -175
154 -255 l58 -62 -24 50 c-31 64 -54 138 -62 196 -12 86 43 230 116 299 61 59
200 132 346 181 137 46 288 127 350 187 100 97 129 235 92 430 l-11 54 -22
-21 -23 -21 1 112 c1 108 0 116 -32 178 -17 36 -43 78 -56 94 l-25 30 -7 -30z
m62 -81 c10 -39 -14 -145 -50 -218 -59 -119 -241 -283 -533 -479 -73 -48 -150
-108 -172 -131 -44 -47 -101 -152 -101 -185 0 -26 -16 -26 -23 0 -11 44 -41 5
-32 -42 3 -11 1 -18 -2 -14 -25 25 2 138 56 231 59 101 198 233 466 443 72 56
153 130 182 163 49 59 125 194 152 269 l12 35 19 -25 c11 -14 23 -35 26 -47z
m75 -386 c-49 -191 -98 -233 -501 -437 -179 -91 -213 -112 -265 -165 -55 -56
-114 -149 -116 -185 -1 -8 -7 5 -13 30 -15 54 -5 88 46 153 89 111 174 174
577 421 98 60 190 146 217 203 11 24 29 45 44 50 14 5 26 9 28 8 1 -1 -7 -36
-17 -78z m-914 -759 c-3 -7 -5 -2 -5 12 0 14 2 19 5 13 2 -7 2 -19 0 -25z"/>
<path d="M8685 7312 c12 -58 8 -149 -11 -204 -17 -53 -70 -113 -212 -240 -67
-61 -77 -85 -61 -163 9 -50 9 -69 -4 -111 -12 -42 -13 -56 -2 -89 8 -21 20
-44 28 -52 12 -13 18 -8 42 33 75 128 202 212 288 190 38 -9 75 -54 94 -112 9
-30 20 -54 24 -54 15 0 58 60 75 105 15 40 15 53 5 100 -7 30 -17 57 -22 60
-17 11 -9 25 15 25 36 0 91 -26 125 -60 l31 -32 0 42 c0 104 -84 200 -193 218
-35 6 -42 12 -45 32 -4 40 -22 100 -30 100 -4 -1 -24 -28 -45 -62 -21 -33 -40
-59 -42 -57 -2 2 3 29 11 59 25 92 2 204 -57 278 l-21 27 7 -33z m-43 -330
c-7 -2 -10 -8 -7 -12 3 -5 13 -7 23 -4 13 5 14 4 4 -4 -8 -5 -13 -12 -13 -16
3 -19 -2 -28 -34 -70 -19 -25 -31 -46 -26 -46 4 0 30 17 56 37 27 20 45 31 41
25 -3 -6 -2 -13 4 -17 5 -3 10 -16 10 -28 0 -20 0 -20 15 -1 14 17 14 16 1
-13 -9 -17 -44 -56 -78 -85 -103 -87 -135 -126 -169 -204 -25 -56 -35 -71 -45
-63 -21 18 -25 63 -11 120 11 42 12 68 4 116 -9 52 -8 65 6 86 24 37 210 196
222 189 5 -3 4 -7 -3 -10z m308 -59 c13 -13 30 -23 37 -23 7 0 16 0 21 -1 4 0
13 -11 20 -25 7 -13 17 -24 21 -24 8 0 31 -52 31 -70 0 -3 -22 15 -49 41 -33
32 -66 52 -107 66 -50 17 -59 23 -62 46 -3 25 -2 26 30 20 18 -3 44 -17 58
-30z m-69 -173 c6 0 8 -4 5 -9 -3 -5 2 -12 11 -15 9 -4 20 -1 25 6 4 7 8 9 8
3 1 -5 3 -27 6 -48 6 -40 -8 -86 -35 -123 -15 -19 -16 -15 -16 57 0 66 -4 82
-24 110 -19 26 -21 31 -7 26 10 -4 22 -7 27 -7z"/>
<path d="M8670 6870 c0 -5 5 -10 11 -10 5 0 7 5 4 10 -3 6 -8 10 -11 10 -2 0
-4 -4 -4 -10z"/>
<path d="M8542 6797 c-21 -22 -42 -75 -42 -105 0 -22 47 16 64 53 17 36 21 75
8 75 -5 0 -18 -11 -30 -23z"/>
<path d="M9305 6211 c-66 -39 -137 -113 -172 -181 -26 -50 -28 -64 -28 -160 1
-119 15 -170 90 -325 63 -130 128 -224 249 -360 195 -217 311 -383 432 -619
l72 -140 21 71 c45 152 53 280 25 404 -22 95 -110 266 -229 442 -55 81 -109
162 -120 180 l-19 31 63 -35 c117 -66 245 -164 358 -273 l113 -109 0 59 c0 78
-24 173 -62 253 -38 80 -193 239 -305 315 -77 52 -88 65 -50 60 146 -20 198
-29 292 -54 61 -16 148 -45 195 -64 47 -19 86 -33 88 -31 2 2 -2 13 -8 25 -7
14 -17 19 -29 15 -9 -3 -45 6 -80 20 -100 41 -282 84 -440 104 -150 19 -225
41 -292 86 -41 27 -44 32 -30 53 12 19 61 -5 54 -27 -3 -11 -2 -12 4 -4 7 10
19 9 55 -2 26 -7 142 -30 259 -50 271 -46 318 -62 421 -140 28 -22 49 -32 53
-25 3 5 -1 13 -9 16 -9 3 -14 10 -11 14 3 5 -6 17 -20 28 -14 11 -25 24 -25
29 0 6 -10 18 -22 29 l-23 19 19 -25 c11 -14 -1 -5 -25 20 -24 25 -48 44 -52
42 -4 -1 -10 5 -13 13 -3 8 -10 12 -15 9 -5 -3 -9 -1 -9 4 0 10 -60 38 -72 34
-5 -1 -8 3 -8 9 0 6 -7 9 -15 5 -8 -3 -15 0 -15 6 0 6 -3 8 -7 5 -3 -4 -12 -2
-20 4 -7 6 -13 8 -13 4 0 -4 -7 -2 -15 5 -8 7 -15 9 -15 5 0 -4 -6 -3 -13 4
-20 16 -126 38 -263 55 -66 8 -137 23 -158 32 -39 19 -96 94 -96 126 0 24 -6
23 -65 -11z m-18 -307 c-3 -4 0 -13 8 -21 18 -17 60 0 48 20 -4 7 0 7 10 -2
13 -10 17 -11 17 -1 0 7 26 -12 58 -42 31 -30 139 -109 238 -176 345 -230 445
-330 478 -477 7 -30 7 -30 -41 16 -166 158 -316 269 -488 358 -98 52 -129 75
-228 170 -87 84 -137 161 -105 161 6 0 9 -3 5 -6z m79 -345 c27 -35 87 -109
134 -164 231 -270 365 -458 413 -579 40 -98 59 -266 38 -321 -7 -17 -15 -6
-48 60 -118 233 -260 437 -445 641 -134 148 -181 218 -262 392 -42 91 -59 149
-45 158 5 3 9 0 9 -6 0 -6 6 -8 13 -4 10 6 10 4 0 -7 -7 -7 -13 -18 -13 -25 0
-13 25 -13 37 1 4 4 2 5 -4 1 -7 -4 -13 -3 -13 2 0 6 11 9 24 8 13 0 22 -4 20
-7 -2 -4 2 -12 10 -18 10 -9 12 -3 10 34 l-3 45 38 -74 c21 -40 60 -102 87
-137z"/>
<path d="M9445 5970 c-3 -5 1 -10 10 -10 9 0 13 5 10 10 -3 6 -8 10 -10 10 -2
0 -7 -4 -10 -10z"/>
</g>
</svg>
